<?xml version="1.0" encoding="UTF-8" standalone="no"?>
<!DOCTYPE svg PUBLIC "-//W3C//DTD SVG 1.1//EN" "http://www.w3.org/Graphics/SVG/1.1/DTD/svg11.dtd">
<!-- Generated by graphviz version 13.1.1 (0)
 -->
<!-- Pages: 1 -->
<svg width="913pt" height="752pt" viewBox="0.00 0.00 913.00 752.00" xmlns="http://www.w3.org/2000/svg" xmlns:xlink="http://www.w3.org/1999/xlink">
<g id="graph0" class="graph" transform="scale(1 1) rotate(0) translate(4 748)">
<polygon fill="white" stroke="none" points="-4,4 -4,-748 908.75,-748 908.75,4 -4,4"/>
<!-- Charleston_So -->
<g id="node1" class="node">
<title>Charleston_So</title>
<ellipse fill="none" stroke="black" cx="584" cy="-726" rx="65.17" ry="18"/>
<text xml:space="preserve" text-anchor="middle" x="584" y="-720.95" font-family="Times,serif" font-size="14.00">Charleston_So</text>
</g>
<!-- Gardner_Webb -->
<g id="node2" class="node">
<title>Gardner_Webb</title>
<ellipse fill="none" stroke="black" cx="512" cy="-637.5" rx="67.73" ry="18"/>
<text xml:space="preserve" text-anchor="middle" x="512" y="-632.45" font-family="Times,serif" font-size="14.00">Gardner_Webb</text>
</g>
<!-- Charleston_So&#45;&gt;Gardner_Webb -->
<g id="edge1" class="edge">
<title>Charleston_So-&gt;Gardner_Webb</title>
<path fill="none" stroke="black" d="M570.12,-708.32C559.73,-695.84 545.32,-678.53 533.45,-664.27"/>
<polygon fill="black" stroke="black" points="536.14,-662.03 527.05,-656.59 530.76,-666.51 536.14,-662.03"/>
<text xml:space="preserve" text-anchor="middle" x="557.82" y="-676.7" font-family="Times,serif" font-size="14.00">2</text>
</g>
<!-- Presbyterian -->
<g id="node3" class="node">
<title>Presbyterian</title>
<ellipse fill="none" stroke="black" cx="317" cy="-106.5" rx="56.98" ry="18"/>
<text xml:space="preserve" text-anchor="middle" x="317" y="-101.45" font-family="Times,serif" font-size="14.00">Presbyterian</text>
</g>
<!-- Charleston_So&#45;&gt;Presbyterian -->
<g id="edge2" class="edge">
<title>Charleston_So-&gt;Presbyterian</title>
<path fill="none" stroke="black" d="M518.57,-725.59C397.43,-725.88 143.18,-722.43 62,-690 28.73,-676.71 0,-674.32 0,-638.5 0,-638.5 0,-638.5 0,-238.25 0,-199.52 29.06,-197.39 62,-177 120.55,-140.76 198.09,-123.12 252.23,-114.74"/>
<polygon fill="black" stroke="black" points="252.54,-118.23 261.92,-113.3 251.51,-111.3 252.54,-118.23"/>
<text xml:space="preserve" text-anchor="middle" x="3.38" y="-411.2" font-family="Times,serif" font-size="14.00">1</text>
</g>
<!-- UNC_Asheville -->
<g id="node4" class="node">
<title>UNC_Asheville</title>
<ellipse fill="none" stroke="black" cx="418" cy="-18" rx="70.29" ry="18"/>
<text xml:space="preserve" text-anchor="middle" x="418" y="-12.95" font-family="Times,serif" font-size="14.00">UNC_Asheville</text>
</g>
<!-- Charleston_So&#45;&gt;UNC_Asheville -->
<g id="edge3" class="edge">
<title>Charleston_So-&gt;UNC_Asheville</title>
<path fill="none" stroke="black" d="M646.41,-720.5C737.98,-712.15 898,-690.17 898,-638.5 898,-638.5 898,-638.5 898,-105.5 898,-38.78 822.01,-68.98 757,-54 670.16,-33.98 568.16,-25.41 498.9,-21.73"/>
<polygon fill="black" stroke="black" points="499.32,-18.25 489.16,-21.24 498.97,-25.24 499.32,-18.25"/>
<text xml:space="preserve" text-anchor="middle" x="901.38" y="-366.95" font-family="Times,serif" font-size="14.00">2</text>
</g>
<!-- Winthrop -->
<g id="node5" class="node">
<title>Winthrop</title>
<ellipse fill="none" stroke="black" cx="697" cy="-372" rx="46.23" ry="18"/>
<text xml:space="preserve" text-anchor="middle" x="697" y="-366.95" font-family="Times,serif" font-size="14.00">Winthrop</text>
</g>
<!-- Charleston_So&#45;&gt;Winthrop -->
<g id="edge4" class="edge">
<title>Charleston_So-&gt;Winthrop</title>
<path fill="none" stroke="black" d="M645.1,-719.5C684.84,-714.52 731.52,-705.51 744,-690 822.59,-592.36 800.24,-520.01 744,-408 741.33,-402.68 737.42,-397.97 732.99,-393.86"/>
<polygon fill="black" stroke="black" points="735.18,-391.13 725.18,-387.64 730.82,-396.6 735.18,-391.13"/>
<text xml:space="preserve" text-anchor="middle" x="798.28" y="-543.95" font-family="Times,serif" font-size="14.00">1</text>
</g>
<!-- SC_Upstate -->
<g id="node6" class="node">
<title>SC_Upstate</title>
<ellipse fill="none" stroke="black" cx="444" cy="-549" rx="54.93" ry="18"/>
<text xml:space="preserve" text-anchor="middle" x="444" y="-543.95" font-family="Times,serif" font-size="14.00">SC_Upstate</text>
</g>
<!-- Gardner_Webb&#45;&gt;SC_Upstate -->
<g id="edge5" class="edge">
<title>Gardner_Webb-&gt;SC_Upstate</title>
<path fill="none" stroke="black" d="M498.57,-619.41C488.72,-606.89 475.2,-589.68 464.07,-575.54"/>
<polygon fill="black" stroke="black" points="467.04,-573.65 458.11,-567.95 461.54,-577.97 467.04,-573.65"/>
<text xml:space="preserve" text-anchor="middle" x="487.47" y="-588.2" font-family="Times,serif" font-size="14.00">1</text>
</g>
<!-- Presbyterian&#45;&gt;Charleston_So -->
<g id="edge20" class="edge">
<title>Presbyterian-&gt;Charleston_So</title>
<path fill="none" stroke="black" d="M277.74,-119.89C209.45,-142.65 76,-192.91 76,-238.25 76,-638.5 76,-638.5 76,-638.5 76,-682 369.19,-709.33 510.1,-719.95"/>
<polygon fill="black" stroke="black" points="509.46,-723.41 519.69,-720.67 509.98,-716.43 509.46,-723.41"/>
<text xml:space="preserve" text-anchor="middle" x="79.38" y="-411.2" font-family="Times,serif" font-size="14.00">1</text>
</g>
<!-- Presbyterian&#45;&gt;Gardner_Webb -->
<g id="edge21" class="edge">
<title>Presbyterian-&gt;Gardner_Webb</title>
<path fill="none" stroke="black" d="M292.68,-123.02C256.35,-147.89 189.55,-200.52 165,-265.5 131.35,-354.57 155.78,-388.9 188,-478.5 193.92,-494.97 193.91,-501.38 207,-513 245.63,-547.3 381.9,-594.77 458.58,-619.69"/>
<polygon fill="black" stroke="black" points="457.4,-622.99 468,-622.73 459.56,-616.33 457.4,-622.99"/>
<text xml:space="preserve" text-anchor="middle" x="159.45" y="-366.95" font-family="Times,serif" font-size="14.00">2</text>
</g>
<!-- Presbyterian&#45;&gt;UNC_Asheville -->
<g id="edge24" class="edge">
<title>Presbyterian-&gt;UNC_Asheville</title>
<path fill="none" stroke="black" d="M336,-89.23C351.28,-76.14 372.96,-57.57 390.2,-42.81"/>
<polygon fill="black" stroke="black" points="392.28,-45.64 397.59,-36.48 387.72,-40.32 392.28,-45.64"/>
<text xml:space="preserve" text-anchor="middle" x="379.92" y="-57.2" font-family="Times,serif" font-size="14.00">2</text>
</g>
<!-- Presbyterian&#45;&gt;SC_Upstate -->
<g id="edge23" class="edge">
<title>Presbyterian-&gt;SC_Upstate</title>
<path fill="none" stroke="black" d="M309.09,-124.53C289.26,-169.73 241.8,-295.73 281,-390 306.46,-451.22 368.86,-500.22 408.64,-526.61"/>
<polygon fill="black" stroke="black" points="406.67,-529.5 416.97,-532.01 410.48,-523.63 406.67,-529.5"/>
<text xml:space="preserve" text-anchor="middle" x="270.86" y="-322.7" font-family="Times,serif" font-size="14.00">1</text>
</g>
<!-- Longwood -->
<g id="node8" class="node">
<title>Longwood</title>
<ellipse fill="none" stroke="black" cx="430" cy="-460.5" rx="50.84" ry="18"/>
<text xml:space="preserve" text-anchor="middle" x="430" y="-455.45" font-family="Times,serif" font-size="14.00">Longwood</text>
</g>
<!-- Presbyterian&#45;&gt;Longwood -->
<g id="edge22" class="edge">
<title>Presbyterian-&gt;Longwood</title>
<path fill="none" stroke="black" d="M322.53,-124.72C340.69,-181.29 398.62,-361.76 421.03,-431.56"/>
<polygon fill="black" stroke="black" points="417.7,-432.63 424.09,-441.08 424.36,-430.49 417.7,-432.63"/>
<text xml:space="preserve" text-anchor="middle" x="381.85" y="-278.45" font-family="Times,serif" font-size="14.00">1</text>
</g>
<!-- UNC_Asheville&#45;&gt;Gardner_Webb -->
<g id="edge34" class="edge">
<title>UNC_Asheville-&gt;Gardner_Webb</title>
<path fill="none" stroke="black" d="M348.3,-20.75C238.6,-25.43 38,-42.58 38,-105.5 38,-505.75 38,-505.75 38,-505.75 38,-691 258.16,-579.3 439,-619.5 443.05,-620.4 447.22,-621.34 451.42,-622.29"/>
<polygon fill="black" stroke="black" points="450.55,-625.68 461.08,-624.51 452.11,-618.86 450.55,-625.68"/>
<text xml:space="preserve" text-anchor="middle" x="41.38" y="-322.7" font-family="Times,serif" font-size="14.00">2</text>
</g>
<!-- UNC_Asheville&#45;&gt;SC_Upstate -->
<g id="edge37" class="edge">
<title>UNC_Asheville-&gt;SC_Upstate</title>
<path fill="none" stroke="black" d="M347.84,-20.23C298.94,-25.4 237.84,-41.62 211,-88.5 136.67,-218.32 175.69,-275.69 191,-424.5 193.48,-448.63 187.86,-456.94 199,-478.5 209.17,-498.19 215.19,-503.06 235,-513 279.28,-535.22 334.8,-543.74 377.49,-546.84"/>
<polygon fill="black" stroke="black" points="377.18,-550.32 387.38,-547.46 377.62,-543.34 377.18,-550.32"/>
<text xml:space="preserve" text-anchor="middle" x="176.3" y="-278.45" font-family="Times,serif" font-size="14.00">2</text>
</g>
<!-- UNC_Asheville&#45;&gt;Longwood -->
<g id="edge35" class="edge">
<title>UNC_Asheville-&gt;Longwood</title>
<path fill="none" stroke="black" d="M364.73,-30.14C298.65,-47.18 196.64,-85.75 214,-159 257.79,-343.79 288.37,-369.49 355,-424.5 363.73,-431.7 374.18,-437.79 384.47,-442.76"/>
<polygon fill="black" stroke="black" points="382.71,-445.8 393.27,-446.74 385.6,-439.43 382.71,-445.8"/>
<text xml:space="preserve" text-anchor="middle" x="240.72" y="-234.2" font-family="Times,serif" font-size="14.00">2</text>
</g>
<!-- Radford -->
<g id="node9" class="node">
<title>Radford</title>
<ellipse fill="none" stroke="black" cx="471" cy="-195" rx="41.12" ry="18"/>
<text xml:space="preserve" text-anchor="middle" x="471" y="-189.95" font-family="Times,serif" font-size="14.00">Radford</text>
</g>
<!-- UNC_Asheville&#45;&gt;Radford -->
<g id="edge36" class="edge">
<title>UNC_Asheville-&gt;Radford</title>
<path fill="none" stroke="black" d="M423.28,-36.43C432.47,-66.77 451.48,-129.56 462.54,-166.05"/>
<polygon fill="black" stroke="black" points="459.13,-166.9 465.38,-175.45 465.83,-164.87 459.13,-166.9"/>
<text xml:space="preserve" text-anchor="middle" x="453.14" y="-101.45" font-family="Times,serif" font-size="14.00">2</text>
</g>
<!-- Winthrop&#45;&gt;Charleston_So -->
<g id="edge38" class="edge">
<title>Winthrop-&gt;Charleston_So</title>
<path fill="none" stroke="black" d="M707.62,-389.84C717.27,-406.77 730,-433.94 730,-459.5 730,-638.5 730,-638.5 730,-638.5 730,-679.03 687.84,-700.98 648.83,-712.61"/>
<polygon fill="black" stroke="black" points="648.11,-709.18 639.41,-715.22 649.98,-715.93 648.11,-709.18"/>
<text xml:space="preserve" text-anchor="middle" x="733.38" y="-543.95" font-family="Times,serif" font-size="14.00">1</text>
</g>
<!-- Winthrop&#45;&gt;Gardner_Webb -->
<g id="edge39" class="edge">
<title>Winthrop-&gt;Gardner_Webb</title>
<path fill="none" stroke="black" d="M693.62,-390.39C684.63,-432.25 656.37,-539.75 593,-601.5 585.67,-608.64 576.64,-614.44 567.31,-619.11"/>
<polygon fill="black" stroke="black" points="566.16,-615.79 558.51,-623.12 569.06,-622.16 566.16,-615.79"/>
<text xml:space="preserve" text-anchor="middle" x="663.66" y="-499.7" font-family="Times,serif" font-size="14.00">2</text>
</g>
<!-- Winthrop&#45;&gt;Presbyterian -->
<g id="edge42" class="edge">
<title>Winthrop-&gt;Presbyterian</title>
<path fill="none" stroke="black" d="M684.69,-354.34C664.45,-327.35 622.38,-272.9 582,-231 556.87,-204.93 552.3,-195.19 521,-177 474.68,-150.08 416.34,-131.53 373.93,-120.41"/>
<polygon fill="black" stroke="black" points="374.99,-117.06 364.43,-117.98 373.25,-123.85 374.99,-117.06"/>
<text xml:space="preserve" text-anchor="middle" x="599.59" y="-234.2" font-family="Times,serif" font-size="14.00">2</text>
</g>
<!-- Winthrop&#45;&gt;UNC_Asheville -->
<g id="edge45" class="edge">
<title>Winthrop-&gt;UNC_Asheville</title>
<path fill="none" stroke="black" d="M718.69,-355.62C735.21,-342.86 757.36,-323.32 771,-301.5 786.11,-277.33 790,-268.75 790,-240.25 790,-240.25 790,-240.25 790,-105.5 790,-46.18 608.29,-27.53 498.87,-21.67"/>
<polygon fill="black" stroke="black" points="499.21,-18.18 489.05,-21.17 498.86,-25.17 499.21,-18.18"/>
<text xml:space="preserve" text-anchor="middle" x="793.38" y="-189.95" font-family="Times,serif" font-size="14.00">2</text>
</g>
<!-- Winthrop&#45;&gt;SC_Upstate -->
<g id="edge44" class="edge">
<title>Winthrop-&gt;SC_Upstate</title>
<path fill="none" stroke="black" d="M684.53,-389.76C676.22,-400.35 664.72,-413.96 653,-424.5 601.31,-471 584.79,-479.25 524,-513 512.94,-519.14 500.59,-525 488.96,-530.1"/>
<polygon fill="black" stroke="black" points="487.75,-526.81 479.94,-533.97 490.51,-533.25 487.75,-526.81"/>
<text xml:space="preserve" text-anchor="middle" x="634.51" y="-455.45" font-family="Times,serif" font-size="14.00">2</text>
</g>
<!-- High_Point -->
<g id="node7" class="node">
<title>High_Point</title>
<ellipse fill="none" stroke="black" cx="709" cy="-283.5" rx="53.4" ry="18"/>
<text xml:space="preserve" text-anchor="middle" x="709" y="-278.45" font-family="Times,serif" font-size="14.00">High_Point</text>
</g>
<!-- Winthrop&#45;&gt;High_Point -->
<g id="edge40" class="edge">
<title>Winthrop-&gt;High_Point</title>
<path fill="none" stroke="black" d="M694.53,-353.69C693.56,-343.63 693.12,-330.75 695.25,-319.5 695.7,-317.14 696.3,-314.74 697,-312.36"/>
<polygon fill="black" stroke="black" points="700.28,-313.59 700.32,-302.99 693.68,-311.25 700.28,-313.59"/>
<text xml:space="preserve" text-anchor="middle" x="698.62" y="-322.7" font-family="Times,serif" font-size="14.00">1</text>
</g>
<!-- Winthrop&#45;&gt;Longwood -->
<g id="edge41" class="edge">
<title>Winthrop-&gt;Longwood</title>
<path fill="none" stroke="black" d="M675.58,-388.24C654.78,-402.98 625.93,-423.28 623,-424.5 580.87,-442 529.99,-450.77 491.04,-455.15"/>
<polygon fill="black" stroke="black" points="490.71,-451.67 481.13,-456.19 491.44,-458.63 490.71,-451.67"/>
<text xml:space="preserve" text-anchor="middle" x="650.29" y="-411.2" font-family="Times,serif" font-size="14.00">1</text>
</g>
<!-- Winthrop&#45;&gt;Radford -->
<g id="edge43" class="edge">
<title>Winthrop-&gt;Radford</title>
<path fill="none" stroke="black" d="M659.07,-361.29C643.67,-355.85 626.57,-347.74 614,-336 575.79,-300.32 599.7,-266.14 561,-231 549.01,-220.12 533.26,-212.47 518.3,-207.16"/>
<polygon fill="black" stroke="black" points="519.63,-203.91 509.04,-204.16 517.48,-210.57 519.63,-203.91"/>
<text xml:space="preserve" text-anchor="middle" x="595.25" y="-278.45" font-family="Times,serif" font-size="14.00">2</text>
</g>
<!-- SC_Upstate&#45;&gt;Charleston_So -->
<g id="edge30" class="edge">
<title>SC_Upstate-&gt;Charleston_So</title>
<path fill="none" stroke="black" d="M434.79,-567.22C424.29,-589.44 410.71,-628.47 428.25,-655.5 448.16,-686.19 485.12,-703.44 518.04,-713.08"/>
<polygon fill="black" stroke="black" points="516.99,-716.42 527.56,-715.67 518.83,-709.67 516.99,-716.42"/>
<text xml:space="preserve" text-anchor="middle" x="431.62" y="-632.45" font-family="Times,serif" font-size="14.00">2</text>
</g>
<!-- SC_Upstate&#45;&gt;Gardner_Webb -->
<g id="edge31" class="edge">
<title>SC_Upstate-&gt;Gardner_Webb</title>
<path fill="none" stroke="black" d="M446.84,-567.06C449.28,-577.77 453.65,-591.4 461.25,-601.5 464.74,-606.14 469.03,-610.38 473.62,-614.19"/>
<polygon fill="black" stroke="black" points="471.38,-616.88 481.49,-620.06 475.57,-611.27 471.38,-616.88"/>
<text xml:space="preserve" text-anchor="middle" x="464.62" y="-588.2" font-family="Times,serif" font-size="14.00">1</text>
</g>
<!-- SC_Upstate&#45;&gt;Presbyterian -->
<g id="edge33" class="edge">
<title>SC_Upstate-&gt;Presbyterian</title>
<path fill="none" stroke="black" d="M388.91,-547.91C336.45,-544.52 260.02,-530.25 222,-478.5 141.49,-368.93 250.23,-197.67 297.24,-133.2"/>
<polygon fill="black" stroke="black" points="299.91,-135.47 303.06,-125.35 294.29,-131.3 299.91,-135.47"/>
<text xml:space="preserve" text-anchor="middle" x="205.21" y="-322.7" font-family="Times,serif" font-size="14.00">1</text>
</g>
<!-- SC_Upstate&#45;&gt;Longwood -->
<g id="edge32" class="edge">
<title>SC_Upstate-&gt;Longwood</title>
<path fill="none" stroke="black" d="M432.87,-531.24C429.77,-525.67 426.83,-519.28 425.25,-513 423.41,-505.68 423.29,-497.63 423.96,-490.1"/>
<polygon fill="black" stroke="black" points="427.4,-490.78 425.32,-480.39 420.47,-489.81 427.4,-490.78"/>
<text xml:space="preserve" text-anchor="middle" x="428.62" y="-499.7" font-family="Times,serif" font-size="14.00">1</text>
</g>
<!-- High_Point&#45;&gt;Charleston_So -->
<g id="edge6" class="edge">
<title>High_Point-&gt;Charleston_So</title>
<path fill="none" stroke="black" d="M755.43,-292.57C797.18,-302.81 852,-325.01 852,-371 852,-638.5 852,-638.5 852,-638.5 852,-680.12 733.48,-704.64 654.07,-716.39"/>
<polygon fill="black" stroke="black" points="654.04,-712.86 644.64,-717.75 655.04,-719.79 654.04,-712.86"/>
<text xml:space="preserve" text-anchor="middle" x="855.38" y="-499.7" font-family="Times,serif" font-size="14.00">2</text>
</g>
<!-- High_Point&#45;&gt;Gardner_Webb -->
<g id="edge7" class="edge">
<title>High_Point-&gt;Gardner_Webb</title>
<path fill="none" stroke="black" d="M723.33,-301.22C743.95,-327.38 777.84,-379.65 762,-424.5 736.39,-497.01 664.13,-569.44 614,-601.5 601.31,-609.62 586.51,-616.09 572.19,-621.15"/>
<polygon fill="black" stroke="black" points="571.2,-617.8 562.82,-624.27 573.41,-624.44 571.2,-617.8"/>
<text xml:space="preserve" text-anchor="middle" x="757.55" y="-455.45" font-family="Times,serif" font-size="14.00">2</text>
</g>
<!-- High_Point&#45;&gt;Presbyterian -->
<g id="edge9" class="edge">
<title>High_Point-&gt;Presbyterian</title>
<path fill="none" stroke="black" d="M703.17,-265.25C691.31,-231.23 663.66,-157.49 642,-142.5 604.04,-116.22 480.87,-129.79 435,-124.5 416.61,-122.38 396.67,-119.66 378.51,-117.03"/>
<polygon fill="black" stroke="black" points="379.06,-113.57 368.66,-115.58 378.04,-120.5 379.06,-113.57"/>
<text xml:space="preserve" text-anchor="middle" x="685.91" y="-189.95" font-family="Times,serif" font-size="14.00">2</text>
</g>
<!-- High_Point&#45;&gt;UNC_Asheville -->
<g id="edge12" class="edge">
<title>High_Point-&gt;UNC_Asheville</title>
<path fill="none" stroke="black" d="M709.28,-265.22C709,-243.6 706.37,-205.92 693,-177 684.47,-158.56 679.04,-154.97 663,-142.5 601.92,-95 519.71,-58.05 467.77,-37.39"/>
<polygon fill="black" stroke="black" points="469.17,-34.18 458.58,-33.79 466.61,-40.7 469.17,-34.18"/>
<text xml:space="preserve" text-anchor="middle" x="685.4" y="-145.7" font-family="Times,serif" font-size="14.00">2</text>
</g>
<!-- High_Point&#45;&gt;Winthrop -->
<g id="edge13" class="edge">
<title>High_Point-&gt;Winthrop</title>
<path fill="none" stroke="black" d="M706.59,-301.85C704.97,-313.56 702.79,-329.29 700.91,-342.78"/>
<polygon fill="black" stroke="black" points="697.49,-342.03 699.58,-352.41 704.42,-342.99 697.49,-342.03"/>
<text xml:space="preserve" text-anchor="middle" x="707.45" y="-322.7" font-family="Times,serif" font-size="14.00">1</text>
</g>
<!-- High_Point&#45;&gt;SC_Upstate -->
<g id="edge11" class="edge">
<title>High_Point-&gt;SC_Upstate</title>
<path fill="none" stroke="black" d="M684.37,-299.87C652.08,-321.01 595.2,-361.74 558.25,-408 536.38,-435.37 541.72,-448.89 523,-478.5 512.59,-494.96 510.25,-499.73 496,-513 490.88,-517.77 485.05,-522.35 479.19,-526.54"/>
<polygon fill="black" stroke="black" points="477.59,-523.39 471.3,-531.91 481.54,-529.17 477.59,-523.39"/>
<text xml:space="preserve" text-anchor="middle" x="561.62" y="-411.2" font-family="Times,serif" font-size="14.00">2</text>
</g>
<!-- High_Point&#45;&gt;Longwood -->
<g id="edge8" class="edge">
<title>High_Point-&gt;Longwood</title>
<path fill="none" stroke="black" d="M662.88,-293.02C622.18,-302.4 562.99,-320.77 521.25,-354 491.93,-377.34 500.41,-396.96 475,-424.5 470.99,-428.84 466.41,-433.07 461.73,-436.99"/>
<polygon fill="black" stroke="black" points="459.6,-434.21 453.94,-443.17 463.95,-439.69 459.6,-434.21"/>
<text xml:space="preserve" text-anchor="middle" x="524.62" y="-366.95" font-family="Times,serif" font-size="14.00">2</text>
</g>
<!-- High_Point&#45;&gt;Radford -->
<g id="edge10" class="edge">
<title>High_Point-&gt;Radford</title>
<path fill="none" stroke="black" d="M687.57,-266.71C668.11,-252.49 641.61,-233.45 636,-231 599.75,-215.17 555.82,-206.3 522.4,-201.46"/>
<polygon fill="black" stroke="black" points="522.93,-198 512.55,-200.11 521.99,-204.93 522.93,-198"/>
<text xml:space="preserve" text-anchor="middle" x="662.99" y="-234.2" font-family="Times,serif" font-size="14.00">2</text>
</g>
<!-- Longwood&#45;&gt;Charleston_So -->
<g id="edge14" class="edge">
<title>Longwood-&gt;Charleston_So</title>
<path fill="none" stroke="black" d="M464.78,-473.96C477.62,-479.6 491.78,-487.13 503,-496.5 554.21,-539.24 569.18,-555.81 589,-619.5 596.86,-644.76 594.27,-675.06 590.52,-696.69"/>
<polygon fill="black" stroke="black" points="587.13,-695.76 588.66,-706.25 594,-697.1 587.13,-695.76"/>
<text xml:space="preserve" text-anchor="middle" x="586.09" y="-588.2" font-family="Times,serif" font-size="14.00">2</text>
</g>
<!-- Longwood&#45;&gt;Gardner_Webb -->
<g id="edge15" class="edge">
<title>Longwood-&gt;Gardner_Webb</title>
<path fill="none" stroke="black" d="M455.71,-476.46C473.9,-488.6 496.94,-507.54 508,-531 519.34,-555.06 519.11,-585.75 516.78,-607.81"/>
<polygon fill="black" stroke="black" points="513.33,-607.22 515.52,-617.59 520.27,-608.12 513.33,-607.22"/>
<text xml:space="preserve" text-anchor="middle" x="520.52" y="-543.95" font-family="Times,serif" font-size="14.00">2</text>
</g>
<!-- Longwood&#45;&gt;Presbyterian -->
<g id="edge16" class="edge">
<title>Longwood-&gt;Presbyterian</title>
<path fill="none" stroke="black" d="M398.03,-446.04C388.22,-440.59 378.14,-433.43 371,-424.5 302.22,-338.39 307.41,-196.59 313.38,-136.19"/>
<polygon fill="black" stroke="black" points="316.84,-136.73 314.44,-126.41 309.88,-135.98 316.84,-136.73"/>
<text xml:space="preserve" text-anchor="middle" x="321.92" y="-278.45" font-family="Times,serif" font-size="14.00">1</text>
</g>
<!-- Longwood&#45;&gt;Winthrop -->
<g id="edge19" class="edge">
<title>Longwood-&gt;Winthrop</title>
<path fill="none" stroke="black" d="M477.75,-453.96C511,-448.97 555.87,-439.99 593,-424.5 605.37,-419.34 606.48,-414.41 618.25,-408 630.04,-401.58 643.24,-395.36 655.41,-389.99"/>
<polygon fill="black" stroke="black" points="656.6,-393.29 664.39,-386.11 653.82,-386.87 656.6,-393.29"/>
<text xml:space="preserve" text-anchor="middle" x="621.62" y="-411.2" font-family="Times,serif" font-size="14.00">1</text>
</g>
<!-- Longwood&#45;&gt;SC_Upstate -->
<g id="edge18" class="edge">
<title>Longwood-&gt;SC_Upstate</title>
<path fill="none" stroke="black" d="M432.81,-478.85C434.7,-490.56 437.25,-506.29 439.43,-519.78"/>
<polygon fill="black" stroke="black" points="435.94,-520.1 440.99,-529.42 442.85,-518.99 435.94,-520.1"/>
<text xml:space="preserve" text-anchor="middle" x="441.63" y="-499.7" font-family="Times,serif" font-size="14.00">1</text>
</g>
<!-- Longwood&#45;&gt;Radford -->
<g id="edge17" class="edge">
<title>Longwood-&gt;Radford</title>
<path fill="none" stroke="black" d="M429.97,-442.17C430.12,-415.63 431.26,-363.39 437.25,-319.5 442.7,-279.57 445.09,-269.5 457,-231 457.75,-228.56 458.6,-226.05 459.5,-223.55"/>
<polygon fill="black" stroke="black" points="462.74,-224.89 463.06,-214.3 456.2,-222.38 462.74,-224.89"/>
<text xml:space="preserve" text-anchor="middle" x="440.62" y="-322.7" font-family="Times,serif" font-size="14.00">1</text>
</g>
<!-- Radford&#45;&gt;Charleston_So -->
<g id="edge25" class="edge">
<title>Radford-&gt;Charleston_So</title>
<path fill="none" stroke="black" d="M460,-212.73C456.2,-218.52 451.91,-225.04 448,-231 411.52,-286.59 316.78,-331.66 332,-424.5 352.6,-550.21 334.91,-618 440,-690 460.8,-704.25 486.77,-712.72 510.91,-717.74"/>
<polygon fill="black" stroke="black" points="510.25,-721.18 520.72,-719.6 511.55,-714.3 510.25,-721.18"/>
<text xml:space="preserve" text-anchor="middle" x="342.68" y="-455.45" font-family="Times,serif" font-size="14.00">2</text>
</g>
<!-- Radford&#45;&gt;Gardner_Webb -->
<g id="edge26" class="edge">
<title>Radford-&gt;Gardner_Webb</title>
<path fill="none" stroke="black" d="M490.49,-211.22C497.15,-216.98 504.34,-223.88 510,-231 561.08,-295.29 553.41,-326.44 563,-408 573.18,-494.5 561.56,-519.57 532,-601.5 531.08,-604.06 529.98,-606.64 528.77,-609.19"/>
<polygon fill="black" stroke="black" points="525.72,-607.46 524.13,-617.93 531.91,-610.74 525.72,-607.46"/>
<text xml:space="preserve" text-anchor="middle" x="568.02" y="-411.2" font-family="Times,serif" font-size="14.00">2</text>
</g>
<!-- Radford&#45;&gt;Presbyterian -->
<g id="edge28" class="edge">
<title>Radford-&gt;Presbyterian</title>
<path fill="none" stroke="black" d="M446.6,-180.29C421.64,-166.27 382.55,-144.32 353.83,-128.19"/>
<polygon fill="black" stroke="black" points="355.89,-125.33 345.46,-123.49 352.46,-131.43 355.89,-125.33"/>
<text xml:space="preserve" text-anchor="middle" x="411.17" y="-145.7" font-family="Times,serif" font-size="14.00">2</text>
</g>
<!-- Radford&#45;&gt;SC_Upstate -->
<g id="edge29" class="edge">
<title>Radford-&gt;SC_Upstate</title>
<path fill="none" stroke="black" d="M481.67,-212.63C501.7,-245.88 541.75,-323.12 528,-390 517.6,-440.58 485.3,-492.08 463.91,-521.99"/>
<polygon fill="black" stroke="black" points="461.1,-519.91 458.02,-530.05 466.75,-524.04 461.1,-519.91"/>
<text xml:space="preserve" text-anchor="middle" x="534.19" y="-366.95" font-family="Times,serif" font-size="14.00">2</text>
</g>
<!-- Radford&#45;&gt;Longwood -->
<g id="edge27" class="edge">
<title>Radford-&gt;Longwood</title>
<path fill="none" stroke="black" d="M470.49,-213.48C469.04,-252.12 463.59,-347.46 444,-424.5 443.41,-426.83 442.7,-429.21 441.91,-431.58"/>
<polygon fill="black" stroke="black" points="438.64,-430.34 438.43,-440.94 445.2,-432.79 438.64,-430.34"/>
<text xml:space="preserve" text-anchor="middle" x="465.76" y="-322.7" font-family="Times,serif" font-size="14.00">1</text>
</g>
</g>
<script xmlns=""/></svg>